<mxfile host="app.diagrams.net" modified="2023-09-27T18:31:06.043Z" agent="Mozilla/5.0 (Windows NT 10.0; Win64; x64) AppleWebKit/537.36 (KHTML, like Gecko) Chrome/116.0.5845.2271 YaBrowser/23.9.0.2271 Yowser/2.5 Safari/537.36" etag="eH37Hdms8LLFAPdOv1X-" version="21.8.2" type="device">
  <diagram id="ODqEMja7V54-zQcEOgQK" name="Страница — 1">
    <mxGraphModel dx="819" dy="452" grid="1" gridSize="10" guides="1" tooltips="1" connect="1" arrows="1" fold="1" page="1" pageScale="1" pageWidth="827" pageHeight="1169" math="0" shadow="0">
      <root>
        <mxCell id="0" />
        <mxCell id="1" parent="0" />
        <mxCell id="fHNkrP9ggYGA1e6VLxWK-1" value="" style="rounded=0;whiteSpace=wrap;html=1;strokeColor=#9673a6;" parent="1" vertex="1">
          <mxGeometry x="200" y="160" width="280" height="320" as="geometry" />
        </mxCell>
        <mxCell id="fHNkrP9ggYGA1e6VLxWK-20" style="edgeStyle=orthogonalEdgeStyle;rounded=0;orthogonalLoop=1;jettySize=auto;html=1;exitX=0.5;exitY=0;exitDx=0;exitDy=0;endArrow=oval;endFill=1;fillColor=#e1d5e7;strokeColor=#9673a6;endSize=9;" parent="1" source="fHNkrP9ggYGA1e6VLxWK-2" edge="1">
          <mxGeometry relative="1" as="geometry">
            <mxPoint x="340" y="220" as="targetPoint" />
            <Array as="points">
              <mxPoint x="280" y="220" />
            </Array>
          </mxGeometry>
        </mxCell>
        <mxCell id="fHNkrP9ggYGA1e6VLxWK-2" value="Б\Д (данные об аккаунте)" style="rounded=0;whiteSpace=wrap;html=1;fillColor=#a20025;strokeColor=#6F0000;fontColor=#ffffff;" parent="1" vertex="1">
          <mxGeometry x="240" y="240" width="80" height="80" as="geometry" />
        </mxCell>
        <mxCell id="fHNkrP9ggYGA1e6VLxWK-23" style="edgeStyle=orthogonalEdgeStyle;rounded=0;orthogonalLoop=1;jettySize=auto;html=1;exitX=0.5;exitY=0;exitDx=0;exitDy=0;endArrow=oval;endFill=1;startSize=6;endSize=9;fillColor=#e1d5e7;strokeColor=#9673a6;" parent="1" source="fHNkrP9ggYGA1e6VLxWK-6" edge="1">
          <mxGeometry relative="1" as="geometry">
            <mxPoint x="280" y="340" as="targetPoint" />
          </mxGeometry>
        </mxCell>
        <mxCell id="fHNkrP9ggYGA1e6VLxWK-25" style="edgeStyle=orthogonalEdgeStyle;rounded=0;orthogonalLoop=1;jettySize=auto;html=1;exitX=0.5;exitY=1;exitDx=0;exitDy=0;endArrow=oval;endFill=1;endSize=9;fillColor=#e1d5e7;strokeColor=#9673a6;" parent="1" source="fHNkrP9ggYGA1e6VLxWK-6" edge="1">
          <mxGeometry relative="1" as="geometry">
            <mxPoint x="340" y="460" as="targetPoint" />
            <Array as="points">
              <mxPoint x="280" y="460" />
            </Array>
          </mxGeometry>
        </mxCell>
        <mxCell id="fHNkrP9ggYGA1e6VLxWK-6" value="Б\Д (Логин и пароль)" style="rounded=0;whiteSpace=wrap;html=1;fillColor=#a20025;strokeColor=#6F0000;fontColor=#ffffff;" parent="1" vertex="1">
          <mxGeometry x="240" y="360" width="80" height="80" as="geometry" />
        </mxCell>
        <mxCell id="fHNkrP9ggYGA1e6VLxWK-26" style="edgeStyle=orthogonalEdgeStyle;rounded=0;orthogonalLoop=1;jettySize=auto;html=1;exitX=0.5;exitY=1;exitDx=0;exitDy=0;endArrow=halfCircle;endFill=0;endSize=5;fillColor=#e1d5e7;strokeColor=#9673a6;" parent="1" source="fHNkrP9ggYGA1e6VLxWK-7" edge="1">
          <mxGeometry relative="1" as="geometry">
            <mxPoint x="340" y="460" as="targetPoint" />
          </mxGeometry>
        </mxCell>
        <mxCell id="fHNkrP9ggYGA1e6VLxWK-7" value="&amp;nbsp;Панель управления" style="rounded=0;whiteSpace=wrap;html=1;fillColor=#a20025;strokeColor=#6F0000;fontColor=#ffffff;" parent="1" vertex="1">
          <mxGeometry x="359" y="360" width="80" height="80" as="geometry" />
        </mxCell>
        <mxCell id="fHNkrP9ggYGA1e6VLxWK-10" style="edgeStyle=orthogonalEdgeStyle;rounded=0;orthogonalLoop=1;jettySize=auto;html=1;exitX=0.5;exitY=1;exitDx=0;exitDy=0;entryX=0.5;entryY=0;entryDx=0;entryDy=0;dashed=1;fillColor=#e1d5e7;strokeColor=#9673a6;" parent="1" source="fHNkrP9ggYGA1e6VLxWK-8" target="fHNkrP9ggYGA1e6VLxWK-7" edge="1">
          <mxGeometry relative="1" as="geometry" />
        </mxCell>
        <mxCell id="fHNkrP9ggYGA1e6VLxWK-11" style="edgeStyle=orthogonalEdgeStyle;rounded=0;orthogonalLoop=1;jettySize=auto;html=1;exitX=0;exitY=0.5;exitDx=0;exitDy=0;entryX=0;entryY=0.5;entryDx=0;entryDy=0;strokeColor=#9673a6;endArrow=none;endFill=0;dashed=1;fillColor=#e1d5e7;" parent="1" source="fHNkrP9ggYGA1e6VLxWK-8" target="fHNkrP9ggYGA1e6VLxWK-7" edge="1">
          <mxGeometry relative="1" as="geometry">
            <Array as="points">
              <mxPoint x="350" y="280" />
              <mxPoint x="350" y="400" />
            </Array>
          </mxGeometry>
        </mxCell>
        <mxCell id="fHNkrP9ggYGA1e6VLxWK-15" style="edgeStyle=orthogonalEdgeStyle;rounded=0;orthogonalLoop=1;jettySize=auto;html=1;exitX=1;exitY=0.5;exitDx=0;exitDy=0;entryX=0;entryY=0.5;entryDx=0;entryDy=0;endArrow=none;endFill=0;fillColor=#e1d5e7;strokeColor=#9673a6;" parent="1" source="fHNkrP9ggYGA1e6VLxWK-8" target="fHNkrP9ggYGA1e6VLxWK-9" edge="1">
          <mxGeometry relative="1" as="geometry" />
        </mxCell>
        <mxCell id="fHNkrP9ggYGA1e6VLxWK-16" style="edgeStyle=orthogonalEdgeStyle;rounded=0;orthogonalLoop=1;jettySize=auto;html=1;exitX=0.5;exitY=0;exitDx=0;exitDy=0;endArrow=halfCircle;endFill=0;fillColor=#e1d5e7;strokeColor=#9673a6;endSize=5;" parent="1" source="fHNkrP9ggYGA1e6VLxWK-8" edge="1">
          <mxGeometry relative="1" as="geometry">
            <mxPoint x="340" y="220" as="targetPoint" />
          </mxGeometry>
        </mxCell>
        <mxCell id="fHNkrP9ggYGA1e6VLxWK-8" value="Модуль проверки&amp;nbsp; данных" style="rounded=0;whiteSpace=wrap;html=1;fillColor=#a20025;strokeColor=#6F0000;fontColor=#ffffff;" parent="1" vertex="1">
          <mxGeometry x="359" y="240" width="81" height="80" as="geometry" />
        </mxCell>
        <mxCell id="fHNkrP9ggYGA1e6VLxWK-9" value="Авторизация" style="rounded=0;whiteSpace=wrap;html=1;fillColor=#a20025;strokeColor=#6F0000;fontColor=#ffffff;" parent="1" vertex="1">
          <mxGeometry x="520" y="240" width="81" height="80" as="geometry" />
        </mxCell>
        <mxCell id="fHNkrP9ggYGA1e6VLxWK-14" value="" style="endArrow=classic;html=1;rounded=0;entryX=1;entryY=0.5;entryDx=0;entryDy=0;dashed=1;fillColor=#e1d5e7;strokeColor=#9673a6;" parent="1" target="fHNkrP9ggYGA1e6VLxWK-6" edge="1">
          <mxGeometry width="50" height="50" relative="1" as="geometry">
            <mxPoint x="330" y="400" as="sourcePoint" />
            <mxPoint x="350" y="290" as="targetPoint" />
          </mxGeometry>
        </mxCell>
        <mxCell id="fHNkrP9ggYGA1e6VLxWK-17" value="" style="endArrow=none;html=1;rounded=0;dashed=1;fillColor=#e1d5e7;strokeColor=#9673a6;" parent="1" edge="1">
          <mxGeometry width="50" height="50" relative="1" as="geometry">
            <mxPoint x="330" y="400" as="sourcePoint" />
            <mxPoint x="350" y="390" as="targetPoint" />
            <Array as="points">
              <mxPoint x="330" y="390" />
            </Array>
          </mxGeometry>
        </mxCell>
        <mxCell id="fHNkrP9ggYGA1e6VLxWK-21" value="" style="endArrow=none;html=1;rounded=0;entryX=0.5;entryY=1;entryDx=0;entryDy=0;endFill=0;startArrow=halfCircle;startFill=0;endSize=6;startSize=5;fillColor=#e1d5e7;strokeColor=#9673a6;" parent="1" target="fHNkrP9ggYGA1e6VLxWK-2" edge="1">
          <mxGeometry width="50" height="50" relative="1" as="geometry">
            <mxPoint x="280" y="340" as="sourcePoint" />
            <mxPoint x="400" y="300" as="targetPoint" />
          </mxGeometry>
        </mxCell>
        <mxCell id="fHNkrP9ggYGA1e6VLxWK-27" value="Cтраница входа в приложение" style="text;html=1;strokeColor=none;fillColor=none;align=center;verticalAlign=middle;whiteSpace=wrap;rounded=0;" parent="1" vertex="1">
          <mxGeometry x="250" y="170" width="180" height="30" as="geometry" />
        </mxCell>
      </root>
    </mxGraphModel>
  </diagram>
</mxfile>
